# This file uses centimeters as units for non-parametric coordinates.

v 0.038290 3.462877 -0.671724
v -0.456229 1.780629 -0.847958
v 0.038931 1.650536 -1.020304
v -0.673749 0.599568 1.300662
v -0.510478 0.282423 1.068544
v -1.080863 0.282423 0.526701
v -0.967777 1.816596 0.098389
v -0.659133 3.483560 -0.105007
v -0.579421 3.463437 0.356668
v 0.348291 3.484494 0.577904
v 0.512280 1.584235 0.900110
v 0.067610 1.785391 0.978097
v -0.492923 8.088357 1.041672
v 0.259229 8.084772 1.149799
v -0.020233 7.147288 0.907436
v 0.667636 3.464730 -0.072853
v 0.482052 3.523923 -0.477089
v 0.946210 1.788477 -0.195167
v -0.428851 3.459726 -0.518738
v 0.130424 8.151023 -1.122532
v 0.175446 7.335166 -0.919865
v 0.771719 8.101885 -0.880756
v 0.333275 8.401812 -0.353981
v 0.911996 7.328559 -0.253307
v 0.707454 6.603535 -0.440845
v 0.839703 6.607430 0.012924
v 0.905604 7.363756 0.258167
v 0.700508 7.342245 0.634544
v 0.916220 8.064802 0.708992
v 1.168346 8.089769 -0.070744
v -1.235941 -0.000000 0.773926
v -0.371139 -0.000000 1.484717
v -1.205774 0.000000 -0.789165
v 0.671989 1.822148 -0.695244
v 1.124269 -0.000000 0.952528
v 1.496742 -0.000000 0.305148
v 0.777903 1.815880 0.572541
v 0.610595 3.462943 0.300648
v 0.913438 2.030133 0.218401
v -0.683083 1.810905 0.691092
v -0.220392 3.467885 0.639292
v 0.086757 3.475074 0.665049
v -0.280705 2.046801 0.886522
v -0.755791 8.291207 0.413670
v -0.746418 8.283422 -0.553768
v -0.509515 8.374688 -0.072937
v -0.604887 6.597538 0.583221
v -0.808643 6.593651 0.189022
v -0.973217 7.720621 0.364048
v -1.138421 8.099955 0.031017
v -0.923746 7.372108 -0.163750
v -0.960816 8.076851 -0.644917
v -0.270491 7.356210 -0.886940
v -0.348208 8.052589 -1.086826
v -0.685891 7.327025 -0.647499
v 0.215524 5.888281 -0.752243
v -0.408578 5.878145 -0.691452
v 0.018919 4.625148 -0.660185
v 0.665840 4.603502 0.163563
v 0.705990 5.889547 -0.397373
v 0.603813 4.676133 -0.290239
v -0.732855 6.401755 -0.793930
v -0.224412 6.327918 -1.060886
v -0.188262 6.610545 -0.822468
v -0.756973 5.891385 0.195454
v -0.635505 4.795009 0.267612
v -0.633068 4.589256 -0.231598
v -0.490512 5.888613 0.626095
v 0.085381 5.889883 0.811810
v 0.370795 4.726197 0.577332
v 0.007894 4.683186 0.674402
v -1.280666 0.890352 -0.552278
v -0.817559 0.875549 -1.140602
v -0.844829 1.336401 -0.519660
v -1.371268 0.914730 0.100119
v -0.929120 1.331228 0.323678
v -0.165992 8.298676 0.836567
v 0.756586 8.256721 0.614307
v 0.478781 8.376372 0.067314
v 0.855264 8.293765 -0.118427
v 0.623090 5.888861 0.496433
v 0.778172 5.888376 0.093788
v -0.323479 4.708464 -0.585932
v -0.761330 5.886260 -0.187790
v 0.381676 0.596812 1.394337
v 0.123697 0.282424 1.186494
v 0.890670 0.282423 0.823950
v -0.087060 8.384985 -0.507114
v -0.071958 1.333779 -0.987387
v 0.687480 1.334505 -0.705169
v 1.094154 0.869205 -0.879559
v 0.997481 1.339061 0.043722
v 0.652225 0.915747 -1.217410
v 1.052898 0.000000 -1.058184
v 0.216443 0.000000 -1.484716
v 0.161477 0.622238 -1.420927
v -0.079062 0.282423 -1.175639
v 0.551393 0.282423 -1.038515
v -1.230708 0.598159 -0.698282
v -0.711505 0.282423 -0.936972
v -0.630874 0.637808 -1.302974
v 1.371788 0.899385 -0.267000
v 1.406006 0.581572 -0.164288
v 1.358124 0.843309 0.457984
v 1.330009 0.533425 0.405797
v 1.033726 0.626386 1.002225
v 0.800679 0.980822 1.089836
v 0.665982 1.339261 0.719419
v 0.041978 0.845047 1.431089
v 0.103184 1.317875 0.989800
v -1.132895 0.931383 0.779336
v -0.522572 0.942663 1.250319
v -0.533556 1.340754 0.815385
v -0.099463 1.601034 1.095904
v 0.394865 6.395206 -1.012539
v 0.941456 6.422529 -0.531090
v -1.136583 0.282423 -0.345515
v -1.421926 0.590964 -0.001883
v -1.281960 0.604791 0.624861
v -1.035524 6.400352 -0.248844
v -1.157781 5.990274 -0.020691
v -0.885757 6.033563 -0.738220
v -0.548033 6.436596 0.907272
v -0.894118 6.024049 0.770325
v -1.003757 6.416480 0.352501
v -0.887702 8.115286 0.723827
v -0.512144 7.381227 0.803497
v -0.811624 1.774711 -0.526621
v -1.063982 1.577418 -0.258729
v 0.614800 7.366648 -0.705631
v -0.022614 0.939583 -1.347632
v 0.002698 6.012512 1.191044
v 0.637889 6.423011 0.856037
v 0.699222 6.005354 0.909256
v 0.131546 6.419063 1.061359
v 1.062441 6.378285 0.345936
v 0.656448 6.596832 0.547649
v 0.692560 0.564541 -1.217252
v 0.995429 0.282424 -0.656772
v 1.193743 0.584275 -0.770546
v 1.085354 5.999286 0.388092
v 1.115215 6.018740 -0.285652
v 0.418592 6.027108 -1.075630
v -0.338412 5.996296 -1.088974
v -1.103649 0.127710 0.918894
v 0.596613 0.000000 1.370985
v -1.096143 0.129190 -0.934932
v 1.189497 0.282424 -0.035776
v 1.356623 0.000000 -0.568368
v 0.360167 6.591135 -0.754642
v -0.239297 8.385026 0.413414
v -0.330436 4.655101 0.590979
v -0.518058 0.000000 -1.378839
v 0.237421 8.394454 0.402306
v -0.157484 8.712349 0.298546
v -0.129515 8.701085 -0.290936
v -0.499030 8.969066 0.286152
v 0.162479 8.699111 0.321167
v 0.482888 9.040489 -0.077255
v 0.170571 8.640739 -0.298260
v -0.154138 9.223229 0.328091
v 0.818537 6.002035 -0.785580
v -0.175952 9.250690 -0.307556
v -0.522295 9.047941 -0.201283
v 0.176599 9.219606 0.286793
v 0.355757 4.679979 -0.568251
v 0.185350 9.212759 -0.279682
v -1.496743 0.000000 0.052319
v 0.908539 1.584179 0.606166
v -0.637473 1.598326 -0.874494
v 0.361034 7.379220 0.876228
v -0.748548 6.608760 -0.385281
v -0.239714 6.595886 0.799908
v 0.250152 6.600286 0.798592
v -0.894795 1.604003 0.660189
v 1.080479 1.597146 0.040050
v 0.943544 1.590437 -0.550647
v -0.219284 9.500916 0.300404
v 0.219854 9.493981 0.320679
v 0.494761 1.589900 -0.951680
v 0.110942 9.482387 -0.326061
f 3 2 1
f 6 5 4
f 9 8 7
f 12 11 10
f 15 14 13
f 18 17 16
f 1 2 19
f 22 21 20
f 22 20 23
f 26 25 24
f 29 28 27
f 30 29 27
f 33 32 31
f 17 18 34
f 36 35 33
f 39 38 37
f 40 9 7
f 43 42 41
f 46 45 44
f 49 48 47
f 52 51 50
f 55 54 53
f 58 57 56
f 61 60 59
f 64 63 62
f 67 66 65
f 66 68 65
f 71 70 69
f 74 73 72
f 76 74 75
f 77 13 14
f 80 79 78
f 70 81 69
f 60 82 59
f 58 83 57
f 67 84 57
f 4 86 85
f 86 87 85
f 38 10 37
f 81 70 59
f 55 52 54
f 20 45 88
f 74 89 73
f 92 91 90
f 91 93 90
f 95 94 36
f 98 97 96
f 101 100 99
f 104 103 102
f 104 106 105
f 108 107 104
f 110 109 107
f 76 75 111
f 110 113 112
f 40 43 41
f 113 110 114
f 115 63 64
f 116 25 26
f 99 100 117
f 6 119 118
f 122 121 120
f 125 124 123
f 77 126 13
f 126 127 13
f 19 2 128
f 129 74 76
f 25 130 24
f 23 80 22
f 97 101 96
f 89 131 73
f 121 57 84
f 124 65 68
f 123 124 132
f 13 127 15
f 92 104 102
f 108 104 92
f 132 134 133
f 123 132 135
f 116 26 136
f 136 26 137
f 140 139 138
f 139 140 103
f 60 142 141
f 144 143 56
f 145 32 5
f 86 146 87
f 93 89 90
f 34 3 17
f 82 60 141
f 81 134 69
f 100 147 117
f 98 95 97
f 121 122 57
f 56 57 144
f 124 68 132
f 69 134 132
f 35 36 87
f 149 94 148
f 115 64 150
f 130 150 21
f 111 112 113
f 4 119 6
f 120 121 125
f 52 55 51
f 14 28 29
f 78 77 14
f 46 44 151
f 80 23 79
f 152 69 68
f 68 69 132
f 95 36 33
f 100 153 147
f 154 77 78
f 157 156 155
f 32 33 35
f 146 86 32
f 160 159 158
f 155 158 161
f 162 142 60
f 116 115 25
f 156 164 163
f 157 155 161
f 163 164 161
f 158 159 165
f 56 162 60
f 60 166 56
f 159 160 167
f 167 165 159
f 3 1 17
f 166 60 61
f 41 9 40
f 66 152 68
f 6 145 5
f 117 147 168
f 19 128 8
f 67 57 83
f 117 168 6
f 118 117 6
f 87 105 106
f 148 87 36
f 108 92 169
f 10 11 37
f 124 125 121
f 121 65 124
f 164 156 157
f 161 164 157
f 74 170 89
f 170 74 129
f 94 139 148
f 98 94 95
f 4 85 109
f 112 111 4
f 133 134 136
f 136 141 142
f 142 162 116
f 142 116 136
f 133 136 137
f 171 28 14
f 172 120 125
f 62 172 64
f 106 85 87
f 85 107 109
f 174 173 135
f 137 174 133
f 99 117 118
f 74 72 75
f 122 144 57
f 63 122 62
f 88 45 46
f 160 156 163
f 143 63 115
f 116 143 115
f 156 46 155
f 88 46 156
f 64 172 55
f 55 172 51
f 154 155 151
f 151 155 46
f 150 64 21
f 64 55 53
f 47 48 125
f 172 125 48
f 22 130 21
f 24 130 22
f 148 139 103
f 87 148 105
f 10 38 70
f 71 42 70
f 100 97 153
f 97 100 101
f 41 42 71
f 9 41 152
f 168 33 31
f 6 168 145
f 16 38 39
f 70 38 59
f 47 125 123
f 173 123 135
f 66 8 9
f 66 9 152
f 17 166 61
f 17 61 16
f 16 59 38
f 16 61 59
f 129 76 175
f 76 111 113
f 175 113 114
f 113 175 76
f 1 83 58
f 166 17 1
f 8 128 7
f 7 129 175
f 170 129 128
f 7 128 129
f 92 102 91
f 102 103 140
f 67 8 66
f 8 67 19
f 1 19 83
f 19 67 83
f 92 176 169
f 92 177 176
f 91 138 93
f 96 101 131
f 156 160 88
f 23 20 88
f 5 32 86
f 4 5 86
f 89 93 131
f 96 131 93
f 21 54 20
f 20 54 45
f 161 158 165
f 161 179 178
f 89 170 3
f 180 89 3
f 178 163 161
f 181 178 179
f 90 177 92
f 89 180 90
f 34 18 177
f 3 34 180
f 181 160 163
f 178 181 163
f 141 134 81
f 141 136 134
f 158 155 154
f 158 79 160
f 49 47 127
f 173 15 127
f 172 48 51
f 48 49 51
f 107 106 104
f 107 85 106
f 175 40 7
f 40 175 114
f 4 111 119
f 75 119 111
f 62 120 172
f 62 122 120
f 160 79 23
f 160 23 88
f 108 110 107
f 110 11 114
f 112 109 110
f 4 109 112
f 63 144 122
f 63 143 144
f 72 118 75
f 119 75 118
f 153 95 33
f 95 153 97
f 24 22 30
f 27 24 30
f 152 41 71
f 152 71 69
f 26 24 27
f 26 27 137
f 151 44 77
f 154 151 77
f 45 50 44
f 50 51 49
f 177 180 34
f 177 90 180
f 49 127 126
f 49 126 50
f 171 137 28
f 137 27 28
f 173 174 15
f 174 137 171
f 21 53 54
f 64 53 21
f 174 135 133
f 132 133 135
f 115 150 25
f 130 25 150
f 81 82 141
f 81 59 82
f 138 96 93
f 98 96 138
f 11 108 169
f 108 11 110
f 1 58 166
f 166 58 56
f 165 181 179
f 161 165 179
f 139 94 98
f 138 139 98
f 37 169 176
f 37 11 169
f 72 73 99
f 72 99 118
f 18 39 37
f 16 39 18
f 18 176 177
f 18 37 176
f 12 40 114
f 11 12 114
f 45 52 50
f 54 52 45
f 121 84 65
f 84 67 65
f 40 12 43
f 43 12 42
f 79 154 78
f 158 154 79
f 73 101 99
f 101 73 131
f 91 140 138
f 102 140 91
f 30 80 78
f 22 80 30
f 30 78 29
f 78 14 29
f 32 35 146
f 146 35 87
f 148 103 105
f 103 104 105
f 33 147 153
f 168 147 33
f 116 162 143
f 162 56 143
f 145 31 32
f 168 31 145
f 15 174 171
f 15 171 14
f 44 126 77
f 44 50 126
f 167 160 181
f 167 181 165
f 12 10 42
f 42 10 70
f 2 3 170
f 2 170 128
f 47 123 173
f 127 47 173
f 94 149 36
f 149 148 36
