# This file uses centimeters as units for non-parametric coordinates.

v 0.198874 1.143955 0.942942
v 0.160016 0.763656 1.413113
v -0.395476 1.143543 0.881815
v 0.483776 -0.000001 1.411275
v -1.454401 -0.000000 0.318289
v -0.566253 -0.000000 1.413569
v 0.662446 1.138463 -0.671977
v 0.856511 0.852207 -1.026408
v 0.965335 1.154014 -0.056468
v -0.907334 1.163228 0.198618
v -0.984930 0.822680 0.931792
v -1.281158 0.862714 0.020877
v 1.326117 -0.000000 0.682162
v 1.454401 0.000000 -0.579959
v -0.330673 0.000000 -1.443676
v -0.057110 1.153380 -0.910637
v -0.092095 0.697609 -1.404627
v 0.369537 1.666493 -0.500194
v 0.635391 1.667346 -0.022632
v 0.495752 2.664047 0.020214
v -0.183765 1.680099 -0.530305
v -0.400806 2.339391 -0.136663
v -0.571592 1.636831 -0.206593
v -0.649198 0.830112 -1.102587
v 0.905768 0.722280 1.162161
v 0.254473 0.488886 1.386009
v 1.236622 0.287752 0.213646
v 0.841188 0.287752 0.964489
v 1.248142 0.517059 0.663810
v -1.046066 0.287752 -0.556637
v -0.591105 0.287752 -1.010276
v -0.905291 0.554178 -1.019392
v -1.171380 0.287752 0.346631
v -1.349859 0.580503 -0.245563
v -0.514073 1.680617 0.280146
v 0.164895 1.656390 0.624994
v -0.032058 2.666778 0.490066
v 0.323182 2.459729 0.383526
v -0.080109 2.648967 -0.420321
v 0.349326 2.653705 -0.273495
v 0.660389 3.664870 0.329496
v 0.504270 3.329801 0.164015
v 0.056985 3.330308 0.524225
v 0.042489 4.237483 0.729858
v 0.433425 3.867146 0.687803
v -0.233229 3.691390 0.697302
v 0.756304 3.825487 -0.161594
v 0.740100 4.172149 0.123787
v 0.527184 4.299355 -0.414679
v -0.419181 3.333609 0.241161
v -0.704654 3.829287 0.221222
v 0.497546 4.527007 0.056362
v -0.031243 4.636645 0.345034
v 0.146376 4.634070 -0.207190
v 0.313162 3.980873 -0.676321
v 0.339643 3.339750 -0.395975
v -0.655125 4.189957 -0.077335
v -0.389166 4.177105 -0.572960
v -0.294481 4.632307 -0.070269
v -0.002997 3.669278 -0.673967
v -0.389419 3.338643 -0.249372
v -0.598646 3.770541 -0.363468
v 0.608010 2.899030 -0.247137
v 0.305470 2.986488 -0.971182
v 0.065871 2.890190 -0.626482
v 0.047919 0.287752 1.262898
v -0.660575 0.287752 1.036010
v -0.351527 0.678833 1.400732
v 1.343348 0.803160 0.398619
v 1.381433 0.762131 -0.284888
v -0.235233 1.672251 0.579857
v -0.406940 2.675406 0.190870
v 1.402925 0.501479 0.060721
v 1.230499 0.579074 -0.713622
v 0.751722 0.287752 -0.969896
v 1.169949 0.287752 -0.381885
v 0.739275 1.141349 0.658526
v 0.476503 1.693191 0.413456
v -1.108703 0.779459 -0.747184
v -0.729493 1.138428 -0.535955
v 0.044198 4.437838 -0.530094
v -0.526036 3.000248 -0.819946
v -0.465640 2.908399 0.528673
v -0.505782 2.866786 -0.224548
v -0.979949 3.021394 -0.341928
v -0.140641 3.256514 -1.040861
v -1.028420 3.271265 0.003124
v -0.621367 3.278346 -0.805735
v -0.961097 3.023142 0.407022
v -0.806523 3.245654 0.741146
v -0.281807 2.991304 1.004148
v 0.339249 2.913894 0.668093
v 0.544454 2.866719 0.306885
v -0.119315 3.257371 1.116590
v 0.542937 3.265506 0.960634
v 0.973234 3.266314 0.541311
v -0.876377 0.523006 1.072297
v -1.299731 0.585016 0.521210
v 1.033175 3.033144 -0.342182
v 0.586206 3.010550 0.952950
v 1.031933 3.006440 0.244585
v -0.333602 4.166625 0.650047
v -0.571505 4.312402 0.283260
v 0.744337 3.263492 -0.801867
v 1.089453 3.262579 -0.041437
v -1.398136 0.000000 -0.353774
v -1.060924 0.000000 -0.976256
v 0.605201 0.000000 -1.345474
v 1.420773 0.132075 0.474828
v 0.210934 0.147573 1.443676
v 0.433071 4.387223 0.476341
v 0.578389 0.539009 -1.258874
v -0.007751 0.287752 -1.188316
v -1.077311 0.000001 0.992461
v 0.899116 0.098987 1.228369
v 0.831197 1.446525 0.348828
v 0.856235 1.422992 -0.252001
v 0.286679 1.437908 0.886057
v -0.515512 1.453786 0.712166
v -0.660923 1.445760 -0.471742
v -0.225174 1.423174 -0.807722
v 0.406485 1.454326 -0.746209
v -0.846393 1.421741 0.025193
f 3 2 1
f 6 5 4
f 9 8 7
f 12 11 10
f 15 14 13
f 8 17 16
f 20 19 18
f 23 22 21
f 17 24 16
f 5 15 13
f 26 25 2
f 29 28 27
f 32 31 30
f 34 30 33
f 35 22 23
f 38 37 36
f 40 18 39
f 43 42 41
f 46 45 44
f 49 48 47
f 51 50 46
f 54 53 52
f 47 56 55
f 59 58 57
f 60 58 55
f 62 61 51
f 65 64 63
f 60 61 62
f 68 67 66
f 11 68 3
f 2 25 1
f 70 9 69
f 37 71 36
f 72 22 35
f 29 27 73
f 76 75 74
f 77 69 9
f 78 19 20
f 80 79 10
f 16 24 80
f 81 55 58
f 52 49 54
f 82 64 65
f 85 84 83
f 86 61 56
f 88 87 50
f 85 83 89
f 43 50 90
f 89 83 91
f 37 93 92
f 43 90 94
f 96 43 95
f 97 67 68
f 98 34 33
f 64 99 63
f 93 101 100
f 51 46 102
f 53 59 103
f 104 56 42
f 104 86 56
f 42 43 96
f 104 42 105
f 33 106 5
f 107 15 5
f 14 108 75
f 107 31 15
f 14 27 109
f 14 75 76
f 66 6 110
f 28 109 27
f 32 30 34
f 79 12 10
f 47 48 41
f 111 44 45
f 70 8 9
f 8 74 112
f 8 112 17
f 108 113 75
f 67 6 66
f 33 5 114
f 22 39 21
f 82 65 84
f 88 85 87
f 64 82 86
f 16 7 8
f 18 21 39
f 32 17 31
f 112 113 17
f 42 56 47
f 42 47 41
f 63 99 93
f 38 78 20
f 99 64 104
f 104 64 86
f 5 13 4
f 115 109 28
f 90 91 94
f 95 100 96
f 83 92 91
f 91 100 94
f 67 33 114
f 97 33 67
f 10 11 3
f 72 35 71
f 99 104 105
f 100 101 96
f 102 53 103
f 53 44 111
f 28 29 25
f 69 77 25
f 31 107 30
f 30 106 33
f 28 66 110
f 28 25 26
f 56 61 60
f 55 56 60
f 72 71 37
f 37 92 83
f 77 9 116
f 19 117 18
f 77 116 118
f 118 3 1
f 78 116 19
f 117 19 116
f 108 14 15
f 108 15 113
f 50 87 90
f 85 89 87
f 90 89 91
f 87 89 90
f 119 118 71
f 35 119 71
f 36 71 118
f 118 116 78
f 83 72 37
f 72 83 84
f 84 22 72
f 39 22 84
f 121 120 21
f 121 21 122
f 7 16 122
f 117 7 122
f 74 75 112
f 75 113 112
f 81 58 59
f 54 59 53
f 61 88 50
f 50 51 61
f 43 45 46
f 46 50 43
f 35 23 123
f 35 123 119
f 57 62 51
f 51 102 103
f 57 58 62
f 62 58 60
f 3 118 119
f 10 3 119
f 77 1 25
f 1 77 118
f 9 117 116
f 117 9 7
f 18 122 21
f 117 122 18
f 121 80 120
f 120 80 123
f 43 94 95
f 94 100 95
f 16 121 122
f 16 80 121
f 85 82 84
f 82 85 88
f 48 45 41
f 41 45 43
f 67 114 6
f 114 5 6
f 8 70 74
f 76 74 73
f 49 47 55
f 81 49 55
f 84 65 39
f 40 39 65
f 40 65 63
f 18 40 20
f 73 69 29
f 69 25 29
f 53 111 52
f 111 45 48
f 20 63 93
f 20 40 63
f 34 12 79
f 12 34 98
f 99 105 101
f 99 101 93
f 98 11 12
f 97 68 11
f 33 97 98
f 97 11 98
f 123 10 119
f 123 80 10
f 14 76 27
f 76 73 27
f 113 15 31
f 113 31 17
f 92 100 91
f 92 93 100
f 38 20 93
f 37 38 93
f 79 32 34
f 32 24 17
f 3 68 2
f 68 26 2
f 106 107 5
f 30 107 106
f 52 111 48
f 49 52 48
f 115 13 109
f 13 14 109
f 46 44 102
f 53 102 44
f 78 36 118
f 38 36 78
f 70 69 73
f 73 74 70
f 82 88 86
f 86 88 61
f 23 120 123
f 21 120 23
f 32 79 24
f 24 79 80
f 59 54 81
f 49 81 54
f 66 26 68
f 66 28 26
f 101 105 96
f 105 42 96
f 4 110 6
f 115 4 13
f 57 51 103
f 103 59 57
f 115 110 4
f 110 115 28
