# This file uses centimeters as units for non-parametric coordinates.

v 0.152188 6.939651 0.494728
v -0.267534 6.975528 0.521397
v 0.547997 6.709303 0.419434
v 0.272222 6.905844 0.551716
v 0.509984 -0.000000 1.329403
v -0.912182 0.000000 -1.220296
v -0.953238 -0.000000 1.057683
v 0.869675 1.503924 -0.133115
v 1.389317 0.900295 -0.082116
v 0.728415 1.484699 0.432832
v 0.532931 1.110868 -1.067417
v 1.081474 0.943736 -0.804347
v 0.568398 1.512177 -0.675028
v 1.277130 0.581512 0.511531
v 1.112688 0.313203 0.377678
v 0.779503 0.313203 0.881382
v 0.382215 3.612745 0.336838
v 0.508019 2.521064 0.360656
v 0.124734 2.489834 0.615391
v -1.312050 0.774360 -0.612063
v -0.796023 0.803679 -1.207759
v -0.837205 1.239406 -0.638216
v 0.605246 2.565601 -0.123166
v 0.522374 3.607812 0.026644
v 0.360411 3.620949 -0.412075
v -0.354496 3.663014 -0.393950
v -0.532678 3.559384 -0.032110
v -0.566376 2.523386 -0.284230
v -0.085369 4.282890 -0.504951
v -0.329732 2.511384 -0.546453
v 0.014378 2.526815 -0.639091
v -0.305103 2.534914 0.521165
v -0.607808 2.509871 0.188042
v -0.383060 3.575071 0.345390
v 0.013937 3.649868 0.517466
v -0.687757 5.880824 -0.266804
v -0.758611 6.223947 0.340519
v -0.401408 5.270611 0.102085
v -0.101967 6.876475 -0.642159
v -0.326414 6.231632 -0.763569
v 0.330095 6.497832 -0.722012
v 0.132702 5.799701 -0.683041
v 0.234275 5.251867 -0.340752
v 0.599011 6.057009 -0.506760
v 0.600097 6.050765 0.477562
v 0.425063 5.248298 -0.008286
v 0.183052 5.252713 0.354465
v 0.031937 1.550643 -0.894225
v 0.352609 2.540314 -0.531151
v 0.652340 5.681659 -0.069183
v 0.779037 6.324443 0.183739
v 0.542339 6.963126 0.116043
v -0.022913 7.651584 -0.025276
v 0.306216 7.026674 -0.408138
v -0.128931 1.239012 1.019505
v -0.441336 0.781145 1.344303
v -0.705584 1.242058 0.766513
v 0.687656 1.014223 1.060093
v 0.195190 0.879240 1.344762
v 1.343355 0.589599 -0.395725
v 1.175732 0.313204 -0.224800
v 0.827156 0.313204 -0.872509
v -0.721744 6.432417 -0.302429
v -0.770957 6.297660 0.184299
v -0.022547 7.122046 0.366093
v 0.388917 6.925952 0.381763
v -1.115821 0.894719 0.822030
v -1.042763 1.266012 0.067279
v 0.530774 4.308230 -0.093336
v 0.605015 4.437321 -0.849606
v 0.242597 4.317574 -0.493679
v 0.599831 5.081618 0.672623
v 0.851773 5.104330 -0.265636
v 0.401490 4.889089 0.739183
v -0.392840 4.679727 0.902664
v -0.240690 4.901286 0.728601
v -0.877543 5.108412 0.106953
v -0.243373 5.240898 -0.369678
v 0.929734 4.452810 0.471525
v 1.042673 4.483804 -0.320982
v 0.396867 4.465769 0.987434
v 0.371866 4.317962 0.369272
v -0.112230 4.312354 0.519121
v 0.824058 4.794223 0.414810
v 0.900588 4.773906 -0.343655
v -0.244443 4.882452 -0.808622
v 0.346002 4.765061 -0.923660
v 0.519798 4.888400 -0.563873
v -0.688837 4.547656 -0.840750
v -0.893777 4.772834 -0.354511
v -0.435658 4.455396 0.956732
v -0.510000 4.309227 0.156893
v -0.782671 4.409609 -0.618414
v -0.963491 4.466571 0.456631
v 0.045022 0.313204 -1.219004
v 0.181722 0.000000 -1.490293
v 0.989851 0.104153 -1.128477
v 0.002158 0.929558 -1.360737
v -0.298660 1.234601 -1.025796
v 1.184319 0.904309 0.643225
v 0.318095 1.554404 0.811220
v -0.493737 0.313203 1.075968
v -0.947179 0.127793 1.086603
v -1.031106 0.313203 0.572434
v -0.083121 0.000000 1.490294
v 0.217971 0.313203 1.142009
v 0.907342 0.124050 1.136051
v 1.300423 -0.000000 0.647359
v 0.996467 0.000000 -1.021380
v 1.439217 0.000000 -0.394416
v 1.382498 0.142220 0.418631
v -0.452072 4.312403 -0.294344
v -0.064116 4.450625 -1.065313
v 0.178262 6.179894 0.768024
v -0.152081 5.253284 0.379173
v -0.267508 5.850800 0.649647
v -1.328375 0.957508 0.028415
v -1.089903 0.598926 0.863610
v -1.398068 0.632957 0.106707
v -1.198659 0.313204 -0.148921
v -0.825526 0.313204 -0.898773
v -0.815588 4.806247 0.489376
v -0.541603 2.212633 0.652733
v 0.173249 2.215995 0.858029
v -0.360819 7.117455 0.100296
v -0.337477 6.949608 -0.471989
v 0.114123 0.572708 1.347577
v 0.815748 0.631116 1.139338
v -1.391876 0.000001 -0.504307
v -0.432352 0.161692 -1.349820
v 0.466131 0.646540 -1.342708
v 0.948063 0.714590 -1.058684
v -0.227200 0.611113 -1.388330
v 1.006977 1.819073 0.190890
v 0.002875 1.846002 1.000900
v -0.400480 2.030314 0.640799
v 0.215059 2.027427 0.697802
v -0.585942 2.028357 -0.517681
v -0.973683 1.817345 -0.354669
v -0.604733 1.840697 -0.817259
v -0.085168 1.836817 -1.032801
v 0.183372 2.020256 -0.778241
v 0.497600 1.832676 -0.885302
v -0.967075 1.839290 0.289042
v -0.858996 1.562206 -0.196150
v -0.548963 1.558691 -0.710029
v -0.748440 2.022860 0.147197
v 0.838633 2.213676 -0.113218
v 0.751855 2.207799 0.404091
v 0.604897 2.222795 -0.626682
v 0.892385 1.829209 -0.507496
v 0.748186 2.030367 -0.204400
v 0.623010 2.028953 0.418945
v 0.594407 1.820493 0.811617
v -1.423984 0.000000 0.413522
v -0.315816 1.555250 0.808389
v -0.625212 1.806025 0.797753
v -0.797143 1.563792 0.377230
v -1.058214 4.553344 -0.059483
v -0.606933 6.913647 -0.117744
v -0.490617 6.910383 0.371204
v -0.259763 6.360962 0.712624
v -0.367237 5.089232 0.822510
v 0.690221 6.641400 -0.243778
v 0.759687 4.901008 0.019724
v -0.536496 5.101447 -0.746601
v 0.289266 5.107559 -0.819214
v -0.789122 4.890513 0.040754
v 0.620409 6.225951 0.322521
v 0.118136 2.205552 -0.857013
v -0.567881 2.211785 -0.694739
v -0.871500 2.200744 0.071898
f 3 2 1
f 3 1 4
f 1 2 4
f 7 6 5
f 10 9 8
f 13 12 11
f 16 15 14
f 19 18 17
f 22 21 20
f 129 6 7 155
f 25 24 23
f 23 24 18
f 28 27 26
f 31 30 29
f 34 33 32
f 35 19 17
f 38 37 36
f 41 40 39
f 44 43 42
f 47 46 45
f 48 13 11
f 25 23 49
f 51 50 44
f 54 53 52
f 57 56 55
f 59 58 55
f 14 61 60
f 62 60 61
f 64 63 36
f 66 53 65
f 67 56 57
f 68 22 20
f 71 70 69
f 73 47 72
f 76 75 74
f 78 77 38
f 69 80 79
f 83 82 81
f 85 84 80
f 88 87 86
f 86 87 89
f 90 86 89
f 83 81 91
f 94 93 92
f 97 96 95
f 21 99 98
f 10 100 9
f 101 55 58
f 104 103 102
f 107 106 105
f 6 109 108
f 61 110 62
f 111 15 16
f 110 15 111
f 93 113 112
f 93 112 92
f 47 45 114
f 116 37 115
f 68 117 67
f 104 102 118
f 118 119 104
f 20 121 120
f 91 94 83
f 76 122 75
f 33 123 32
f 124 32 123
f 53 126 125
f 126 53 54
f 118 102 56
f 106 128 127
f 121 6 129
f 121 95 130
f 80 69 70
f 80 87 85
f 132 62 131
f 131 95 133
f 25 31 29
f 113 71 29
f 8 134 10
f 137 136 135
f 21 121 20
f 95 121 133
f 32 35 34
f 94 92 83
f 140 139 138
f 33 27 28
f 102 106 127
f 106 102 105
f 142 141 138
f 142 143 141
f 145 144 139
f 145 139 146
f 147 138 139
f 147 139 144
f 23 149 148
f 49 23 150
f 143 13 48
f 8 151 134
f 36 78 38
f 43 78 42
f 153 134 152
f 153 154 134
f 36 63 40
f 40 78 36
f 155 103 104
f 121 129 120
f 157 156 135
f 156 157 158
f 159 75 122
f 89 159 90
f 135 156 101
f 154 10 134
f 12 13 9
f 62 132 60
f 161 160 64
f 64 66 161
f 37 2 3
f 37 162 2
f 62 95 131
f 62 97 95
f 139 140 146
f 48 141 143
f 72 47 163
f 116 115 47
f 126 160 125
f 126 40 63
f 44 164 51
f 53 66 52
f 52 66 51
f 64 51 66
f 103 105 102
f 7 5 105
f 9 13 8
f 13 151 8
f 116 47 114
f 162 114 2
f 115 163 47
f 115 77 163
f 165 74 84
f 81 74 75
f 81 82 79
f 81 79 74
f 78 166 77
f 167 78 43
f 136 137 124
f 18 19 124
f 73 167 43
f 73 46 47
f 16 14 128
f 58 100 10
f 18 124 149
f 23 18 149
f 86 167 88
f 167 166 78
f 158 144 145
f 57 68 67
f 24 17 18
f 82 69 79
f 166 86 168
f 166 167 86
f 109 110 108
f 110 97 62
f 41 44 42
f 41 164 44
f 99 21 22
f 48 146 141
f 41 42 40
f 42 78 40
f 120 155 104
f 119 120 104
f 130 6 121
f 6 96 109
f 147 144 136
f 136 157 135
f 87 80 70
f 113 89 87
f 165 73 72
f 167 73 88
f 90 159 122
f 168 122 76
f 119 20 120
f 68 20 117
f 3 4 114
f 4 2 114
f 163 77 168
f 77 166 168
f 169 64 37
f 64 36 37
f 19 32 124
f 35 32 19
f 60 9 14
f 9 60 12
f 168 76 163
f 76 72 163
f 26 29 30
f 112 113 29
f 152 134 151
f 152 143 142
f 31 150 170
f 31 170 171
f 51 64 169
f 45 50 51
f 142 150 152
f 150 23 148
f 10 101 58
f 101 10 154
f 153 149 124
f 153 152 149
f 107 111 16
f 5 6 108
f 28 171 172
f 30 31 171
f 74 165 72
f 76 74 72
f 33 28 172
f 123 33 172
f 133 21 98
f 121 21 133
f 159 94 75
f 93 94 159
f 131 133 98
f 11 132 131
f 120 129 155
f 171 138 172
f 138 171 142
f 70 71 113
f 70 113 87
f 84 79 80
f 84 74 79
f 73 43 46
f 43 44 50
f 86 90 168
f 168 90 122
f 75 91 81
f 94 91 75
f 31 49 150
f 31 25 49
f 135 154 137
f 101 154 135
f 102 127 56
f 59 55 56
f 39 54 41
f 54 164 41
f 164 52 51
f 54 52 164
f 147 136 123
f 123 136 124
f 144 157 136
f 157 144 158
f 147 172 138
f 172 147 123
f 38 77 115
f 38 115 37
f 58 128 100
f 58 59 128
f 98 11 131
f 11 98 99
f 14 9 100
f 128 14 100
f 45 51 169
f 114 45 3
f 99 146 48
f 11 99 48
f 22 146 99
f 145 146 22
f 145 68 158
f 145 22 68
f 63 160 126
f 160 63 64
f 158 57 156
f 57 158 68
f 28 30 171
f 28 26 30
f 45 46 50
f 46 43 50
f 5 108 107
f 107 105 5
f 53 125 65
f 161 66 65
f 92 34 83
f 33 34 27
f 125 160 161
f 125 161 65
f 27 92 112
f 92 27 34
f 110 61 15
f 15 61 14
f 39 126 54
f 39 40 126
f 171 170 142
f 170 150 142
f 152 148 149
f 150 148 152
f 111 107 108
f 110 111 108
f 151 143 152
f 151 13 143
f 119 118 67
f 67 118 56
f 169 3 45
f 169 37 3
f 159 89 93
f 113 93 89
f 117 119 67
f 117 20 119
f 141 140 138
f 146 140 141
f 85 87 88
f 88 73 165
f 95 96 130
f 6 130 96
f 85 165 84
f 85 88 165
f 110 109 97
f 96 97 109
f 34 35 83
f 35 82 83
f 25 29 71
f 71 69 25
f 24 69 82
f 25 69 24
f 101 156 55
f 55 156 57
f 82 35 17
f 24 82 17
f 59 127 128
f 59 56 127
f 7 105 103
f 155 7 103
f 137 154 153
f 137 153 124
f 112 26 27
f 26 112 29
f 162 37 116
f 162 116 114
f 12 60 132
f 12 132 11
f 106 107 16
f 106 16 128
