# This file uses centimeters as units for non-parametric coordinates.

v -1.145947 7.974717 -0.240643
v -0.815920 7.808870 -0.203758
v -1.175062 7.658330 -0.179916
v -1.096572 8.040893 -0.298908
v -0.134763 2.448674 0.817890
v 0.300116 1.579450 1.005890
v -0.355996 1.609875 1.005354
v -0.548649 3.958541 -0.454233
v -0.727650 5.199056 -0.134293
v -0.715440 4.001871 -0.084404
v 0.166066 7.860082 -0.797318
v 0.513580 7.853748 -0.588837
v 0.303649 8.195761 -0.476665
v 0.721348 5.890072 0.117710
v 0.638670 4.766826 0.051104
v 0.474818 5.861737 0.513527
v 0.131580 5.878270 -0.760437
v 0.336175 5.181547 -0.599388
v 0.645730 5.883078 -0.365707
v -0.943486 1.816254 -0.293820
v -0.640614 1.812593 -0.759136
v -0.708064 2.831085 -0.387337
v 0.576090 4.618745 -0.299440
v -0.424190 3.836636 0.573114
v -0.567287 2.428214 0.627526
v -0.663600 3.937228 0.255669
v -0.804396 2.850413 -0.008177
v -0.429978 5.224840 -0.568130
v -0.181077 3.916372 -0.685507
v -0.066998 5.212400 -0.692612
v -0.289804 7.801729 -0.806572
v -0.236357 8.025706 -1.075394
v -0.178771 7.582219 -1.121021
v -0.114992 6.595910 0.875179
v -0.779321 6.596199 0.452358
v -0.743057 7.975818 0.962997
v 0.128846 7.626213 1.125031
v 0.749747 7.959675 0.934483
v 0.469112 6.642471 0.673225
v -0.607430 5.215268 0.374565
v 0.853149 1.994985 0.354917
v 0.943858 1.826288 -0.040559
v 0.619027 1.900691 0.661372
v 0.623513 -0.000001 1.293137
v 0.436202 0.000000 -1.461981
v -0.161506 1.831902 -0.971573
v 0.265375 1.980168 -0.930141
v -0.037556 2.553817 -0.816858
v 1.475924 -0.000000 0.317702
v -0.932801 7.334575 0.516014
v -1.195663 8.017877 0.280598
v 0.248291 7.818715 0.772419
v 0.227082 8.183084 0.518295
v 0.739474 7.861420 0.209011
v 0.281107 3.872767 -0.633551
v -0.417358 2.895945 -0.675133
v -0.677680 0.527366 1.208546
v 0.009276 0.271880 1.195897
v -0.901949 0.271880 0.837082
v -1.036216 1.576999 0.341729
v -0.797397 7.897293 0.207638
v -0.901408 7.525991 0.012238
v -0.223386 7.785120 0.794544
v -0.447666 8.142193 0.435837
v 0.354208 2.675855 -0.700508
v 0.632511 1.817876 -0.708801
v 0.666135 2.596814 -0.425641
v 1.229916 0.959729 0.479294
v 0.842259 1.332921 0.427892
v 0.936578 1.325357 -0.235994
v -0.614077 8.152225 -0.060272
v 0.246811 2.527751 0.759606
v 0.347292 3.864135 0.588940
v -0.296080 5.861195 0.664379
v 1.192886 0.658202 -0.796618
v 0.660007 0.271881 -0.989601
v 1.224649 0.271880 -0.076742
v 1.144188 0.966172 -0.632563
v 1.406931 0.815938 -0.049187
v -0.850674 6.639097 -0.123142
v -1.000103 7.971002 -0.714973
v -0.297169 6.610966 -0.829487
v 0.192277 7.045115 -0.939865
v -0.642334 7.859022 -1.015907
v 0.158262 0.891054 1.380902
v -0.631374 0.858430 1.295894
v -0.023769 1.329848 0.959513
v 0.941857 0.859106 1.020221
v -1.164812 7.610724 0.117588
v 0.179459 8.041555 1.103588
v 1.127394 8.012169 0.220928
v 0.907209 7.379322 0.488529
v 0.837271 6.605837 0.166138
v 0.915331 7.077210 -0.047203
v 0.668235 6.594293 -0.532001
v -0.288316 5.999711 1.140469
v -0.693941 5.880246 0.382187
v 0.530689 6.006419 1.004559
v 0.045257 5.868214 0.705978
v 1.092415 7.574627 -0.132687
v 0.992833 7.953921 -0.662312
v 0.762262 7.049788 -0.526703
v -0.738651 6.387209 0.804813
v 0.004896 6.412431 1.079670
v 1.138470 5.991825 0.147228
v 0.914291 6.012206 -0.691383
v -0.575956 1.319954 0.816300
v -1.085721 0.941610 0.824985
v -0.988112 0.957929 -0.935603
v -0.537691 1.331855 -0.837762
v -0.985477 1.331568 -0.277504
v -1.408931 0.879687 0.249804
v -0.905470 1.327090 0.411570
v 1.043051 6.389605 0.119358
v 0.803611 6.275998 0.766460
v -1.400557 0.725000 -0.549340
v -0.439906 0.000000 -1.427895
v -1.283389 0.000000 -0.915219
v 0.780785 2.516445 -0.070940
v 0.867503 1.996098 -0.378506
v -0.489697 5.887621 -0.624115
v -0.573726 6.004622 -1.028740
v -1.015628 5.994519 -0.563347
v -1.231778 0.613913 0.790685
v -1.212872 0.271880 0.015058
v -1.143845 6.326612 0.162197
v -0.761967 5.885208 -0.183800
v -1.173018 5.996571 -0.105682
v -0.939046 6.000893 0.685284
v 0.649056 0.597826 -1.255138
v -0.072521 0.533632 -1.412874
v -0.805583 0.653631 -1.216853
v -0.293115 0.271881 -1.191026
v 1.273432 0.568965 0.566758
v 0.746392 0.271880 0.904682
v -0.166541 0.000000 1.461982
v 0.932315 0.146393 1.072786
v -0.456283 0.888006 -1.324744
v 0.086697 0.866547 -1.409947
v 0.507347 1.342851 -0.823334
v -0.045794 1.337702 -0.972524
v 0.691769 0.903490 -1.190602
v -0.037460 3.981601 0.681526
v 0.645223 3.363893 0.238274
v 0.240404 6.007780 -1.120472
v -1.032408 0.271880 -0.654024
v -1.402771 0.528219 0.133521
v -0.990358 6.373227 -0.515759
v -0.707262 6.600907 -0.529369
v -1.049558 0.000000 1.026912
v -1.475923 0.000001 0.211245
v 0.503119 6.422359 -0.940235
v -0.365468 6.416004 -1.048668
v 0.968810 6.386504 -0.423763
v -0.059662 0.549074 1.397863
v 0.696157 0.630938 1.251352
v 1.234167 0.000000 -0.796462
v -0.652809 7.773541 0.530552
v -0.295132 8.026327 1.055557
v -0.135870 7.501361 1.081921
v 0.491728 1.323893 0.832090
v 0.114143 7.570042 -1.124126
v 0.647160 7.846063 -0.987461
v 1.055243 8.036596 -0.209846
v 0.238162 8.025336 -1.158760
v -0.036302 7.558691 -0.848770
v -1.048867 1.575495 -0.441051
v -0.465996 1.601476 -0.996450
v -0.722289 1.585489 0.812030
v 1.095114 7.603014 0.128590
v 0.769513 7.775697 -0.194050
v 0.526605 8.170720 0.065460
v 0.839559 7.537462 -0.036793
v -0.401628 8.129337 -0.492653
v -0.793799 1.976185 0.492508
v 1.042501 1.594331 0.174942
v 0.985912 1.585121 -0.374028
v 0.654408 1.601631 -0.860988
v 0.061359 1.582789 -1.082100
v 0.130460 8.369036 -0.172752
v 0.010023 8.348921 0.242886
v -0.252071 8.348781 -0.075500
v -0.350089 8.629471 0.014091
v 0.206589 6.602457 -0.826565
v 0.271502 8.661356 0.042755
v 0.005476 8.594634 0.292007
v -0.053167 8.897345 0.061569
v 0.026898 8.656269 -0.320217
v -0.016346 7.548456 0.843544
v 0.792804 1.607005 0.690753
f 3 2 1
f 4 3 1
f 7 6 5
f 4 1 2
f 10 9 8
f 13 12 11
f 16 15 14
f 19 18 17
f 22 21 20
f 23 18 19
f 26 25 24
f 27 22 20
f 30 29 28
f 33 32 31
f 36 35 34
f 39 38 37
f 40 26 24
f 9 26 40
f 43 42 41
f 48 47 46
f 45 49 44
f 51 50 36
f 54 53 52
f 29 30 55
f 48 21 56
f 59 58 57
f 27 20 60
f 2 62 61
f 53 64 63
f 67 66 65
f 70 69 68
f 31 13 11
f 71 2 61
f 73 72 43
f 40 24 74
f 77 76 75
f 70 79 78
f 81 80 3
f 84 83 82
f 87 86 85
f 69 88 68
f 80 50 89
f 51 89 50
f 91 90 38
f 38 39 92
f 95 94 93
f 92 91 38
f 97 74 96
f 96 99 98
f 102 101 100
f 83 84 33
f 35 103 34
f 104 96 98
f 16 14 105
f 19 106 105
f 87 107 86
f 107 108 86
f 111 110 109
f 113 111 112
f 105 106 114
f 115 93 39
f 111 116 112
f 119 41 42
f 66 67 120
f 123 122 121
f 122 17 121
f 59 57 124
f 125 59 124
f 35 80 126
f 126 103 35
f 128 127 97
f 128 97 129
f 76 131 130
f 133 132 131
f 77 75 79
f 135 77 134
f 59 136 58
f 137 44 49
f 109 110 138
f 141 140 139
f 140 142 139
f 140 70 78
f 143 73 99
f 144 15 16
f 17 106 19
f 122 145 17
f 132 133 146
f 147 116 146
f 148 122 123
f 149 81 82
f 151 150 59
f 59 125 151
f 145 153 152
f 154 106 152
f 99 73 16
f 16 98 99
f 58 155 57
f 156 135 134
f 77 157 76
f 137 49 77
f 157 45 76
f 117 118 133
f 24 25 5
f 143 72 73
f 113 60 111
f 5 25 7
f 61 159 158
f 36 34 160
f 145 122 153
f 148 153 122
f 76 45 133
f 133 131 76
f 161 87 85
f 72 6 43
f 89 51 61
f 159 61 51
f 163 83 162
f 101 165 164
f 11 166 31
f 163 162 165
f 125 118 151
f 146 133 118
f 98 16 105
f 114 115 105
f 137 136 44
f 45 157 49
f 77 49 157
f 52 53 63
f 90 37 38
f 9 28 8
f 123 121 127
f 58 135 156
f 137 58 136
f 21 168 167
f 46 21 48
f 144 73 43
f 16 73 144
f 128 129 126
f 148 123 126
f 15 144 119
f 23 67 55
f 107 169 60
f 87 7 107
f 145 106 17
f 152 106 145
f 56 21 22
f 8 28 29
f 165 162 11
f 165 11 12
f 31 32 4
f 82 81 84
f 160 34 39
f 39 104 115
f 154 95 93
f 93 115 114
f 95 154 152
f 163 102 83
f 36 160 159
f 159 51 36
f 170 91 92
f 52 91 54
f 91 170 54
f 13 172 171
f 58 156 155
f 88 161 85
f 165 12 164
f 100 101 164
f 96 129 97
f 104 103 96
f 173 171 54
f 164 171 100
f 71 174 2
f 31 4 2
f 146 118 125
f 147 146 125
f 27 60 175
f 175 60 169
f 52 90 91
f 52 37 90
f 132 146 116
f 111 109 116
f 29 55 48
f 55 67 65
f 119 144 41
f 144 43 41
f 33 84 32
f 32 84 81
f 9 10 26
f 10 175 26
f 19 105 14
f 19 14 15
f 69 70 176
f 178 177 70
f 125 124 147
f 112 108 113
f 75 76 130
f 140 78 142
f 179 178 140
f 140 178 70
f 181 172 180
f 182 64 181
f 180 174 182
f 182 181 183
f 152 184 95
f 82 184 152
f 187 186 185
f 182 183 188
f 180 185 181
f 187 185 188
f 153 148 149
f 80 148 126
f 185 180 188
f 180 182 188
f 103 129 96
f 126 129 103
f 82 153 149
f 82 152 153
f 59 150 136
f 87 6 7
f 161 6 87
f 24 5 143
f 24 143 74
f 3 4 81
f 32 81 4
f 158 64 61
f 71 61 64
f 105 115 98
f 115 104 98
f 168 110 167
f 141 179 140
f 15 23 19
f 67 23 15
f 68 88 134
f 77 79 134
f 67 15 119
f 120 67 119
f 58 137 135
f 135 137 77
f 130 131 139
f 132 138 131
f 52 189 37
f 160 39 37
f 48 55 65
f 47 48 65
f 45 117 133
f 112 147 124
f 112 116 147
f 103 104 34
f 104 39 34
f 81 149 80
f 149 148 80
f 13 180 172
f 180 13 174
f 114 106 154
f 154 93 114
f 86 155 85
f 155 156 85
f 132 109 138
f 116 109 132
f 190 69 176
f 161 190 6
f 190 43 6
f 43 190 176
f 177 178 42
f 42 43 176
f 52 63 189
f 159 160 63
f 174 31 2
f 31 174 13
f 111 167 110
f 60 167 111
f 101 163 165
f 101 102 163
f 20 21 167
f 60 20 167
f 171 172 54
f 172 53 54
f 42 178 66
f 46 66 178
f 72 5 6
f 72 143 5
f 21 46 168
f 46 178 179
f 112 124 108
f 124 86 108
f 65 66 47
f 66 46 47
f 113 107 60
f 113 108 107
f 143 99 74
f 74 99 96
f 79 68 134
f 70 68 79
f 89 3 80
f 2 3 62
f 89 61 62
f 62 3 89
f 26 175 25
f 25 175 7
f 86 57 155
f 124 57 86
f 53 172 181
f 181 64 53
f 150 151 118 117 45 44 136
f 187 183 186
f 183 187 188
f 50 35 36
f 80 35 50
f 95 184 83
f 184 82 83
f 162 166 11
f 33 31 166
f 110 168 141
f 138 110 141
f 162 33 166
f 83 33 162
f 63 158 159
f 64 158 63
f 18 23 55
f 55 30 18
f 142 130 139
f 142 75 130
f 18 30 17
f 30 121 17
f 93 94 92
f 92 39 93
f 156 134 88
f 156 88 85
f 142 78 75
f 75 78 79
f 182 71 64
f 182 174 71
f 9 121 28
f 30 28 121
f 139 131 138
f 138 141 139
f 161 88 69
f 69 190 161
f 121 9 127
f 127 9 97
f 66 120 42
f 120 119 42
f 9 40 97
f 97 40 74
f 70 177 176
f 177 42 176
f 141 168 179
f 46 179 168
f 48 56 29
f 8 29 56
f 128 123 127
f 123 128 126
f 8 22 10
f 22 8 56
f 107 7 169
f 175 169 7
f 102 95 83
f 95 102 94
f 10 27 175
f 22 27 10
f 12 171 164
f 13 171 12
f 54 170 173
f 92 94 170
f 183 181 186
f 181 185 186
f 100 171 173
f 100 173 170
f 63 160 189
f 37 189 160
f 94 100 170
f 102 100 94
