# This file uses centimeters as units for non-parametric coordinates.

v -0.317050 3.792217 0.543274
v -0.406495 2.220243 0.721949
v -0.637028 3.823033 0.174774
v 0.341711 3.812967 -0.606325
v 0.713655 2.196615 -0.507702
v 0.588595 3.812923 -0.341331
v 0.737421 2.207175 0.399203
v 0.370551 3.798669 0.521023
v 0.666042 3.811385 0.137217
v 0.297860 4.509953 0.652437
v -0.523035 4.554944 0.541462
v -0.787405 4.518734 -0.045679
v -0.670636 -0.000000 1.267954
v 1.434341 0.000000 -0.201536
v -1.282482 0.000001 -0.834945
v 0.856507 2.194017 -0.048867
v 1.396553 0.902104 -0.224317
v 1.141899 0.921369 0.722215
v 0.913818 1.240662 0.480070
v -0.000353 3.815633 0.639263
v 0.109324 2.198360 0.803955
v -0.851833 1.574466 0.171819
v -0.741336 1.556655 -0.526888
v -1.012995 1.825185 0.009270
v -0.166464 3.801747 -0.688129
v -0.305327 2.201176 -0.819720
v 0.243224 2.172585 -0.859331
v -0.567297 3.809981 -0.369143
v -0.652162 2.203457 -0.569697
v -0.190247 4.517707 -0.738516
v 0.569662 4.516982 -0.580217
v -0.195973 0.997444 1.276352
v -0.572847 1.473111 0.623972
v -0.226964 1.233350 0.990053
v -1.361216 0.918723 0.022866
v -0.989074 1.270341 0.199923
v -1.054500 0.923653 0.826347
v 0.377274 0.000000 -1.437416
v 1.040939 1.243963 -0.226596
v 0.876965 0.946388 -1.088511
v -0.494680 0.894682 -1.320842
v 0.144877 1.241953 -1.074967
v -0.588628 1.281509 -0.875946
v -0.985134 1.231750 -0.346112
v -0.761880 0.641361 -1.210935
v -0.823439 0.305073 -0.911654
v -0.079334 0.305073 -1.227788
v -1.118238 0.929432 -0.772424
v -1.155907 0.305073 -0.233543
v -1.294726 0.666664 -0.594094
v -1.342190 0.553133 0.088546
v 0.452286 1.250415 0.911071
v 0.916852 -0.000000 1.119591
v -0.123845 0.660598 1.366291
v 0.625926 0.744457 1.268934
v 0.172648 0.305073 1.135844
v -1.200199 0.623302 0.682200
v -0.778586 4.019180 -0.033485
v -0.547871 4.259766 0.547102
v -0.581308 4.224822 -0.572390
v 1.068510 0.609114 -0.947680
v 0.624099 0.305073 -1.048305
v 1.073622 0.305073 -0.580463
v 0.182405 0.723295 -1.469980
v 0.114116 4.457296 0.961292
v 0.192762 4.263861 0.713980
v -0.580846 4.433287 0.784212
v 0.694678 1.249872 -0.809080
v -1.440881 0.000000 0.355317
v -0.670608 0.648615 1.197844
v -0.528707 0.305073 1.025969
v 1.423544 0.600373 0.101800
v 0.895911 0.305073 0.788963
v 1.181517 0.305073 0.073003
v 0.657039 4.517509 0.364590
v 0.048150 1.551124 0.859814
v 0.694949 1.546318 0.519016
v 0.519849 2.030700 0.622427
v -0.840393 2.033216 -0.077219
v -0.713458 2.031550 0.373856
v 1.045387 0.574282 0.850382
v 1.372940 0.139867 -0.535364
v 1.088837 0.000000 -0.996988
v 1.440880 0.000000 0.328479
v -0.466877 0.000000 -1.374648
v 0.707806 0.154680 -1.313442
v 0.727809 4.290552 0.226450
v 0.981299 4.406877 0.245874
v 0.622276 4.271934 -0.511187
v 0.812546 4.483459 -0.664925
v 0.183415 4.447502 -1.010376
v -0.318408 0.121084 -1.469628
v 0.505237 4.441285 0.822460
v 0.983164 5.324716 0.161823
v 0.843644 4.722534 -0.055954
v 0.918386 0.139413 1.102512
v -0.140918 0.000001 1.469980
v -0.992841 0.141234 0.965222
v 0.824656 5.413741 0.180416
v 0.792629 5.357413 0.577332
v 0.211668 5.364509 0.720417
v -0.049826 4.682809 0.764162
v 0.224393 5.385911 0.946224
v -0.067349 5.143084 0.955452
v -0.096587 4.261251 -0.795986
v -0.157800 4.463114 -1.024862
v -0.721840 4.409199 -0.717018
v -0.708104 5.376398 -0.766003
v -0.982630 4.452145 -0.177071
v -0.605400 4.552088 -0.491816
v -0.536113 5.363363 -0.581078
v -0.160696 5.403138 -1.003105
v -0.071699 4.731521 -0.944889
v 0.446721 5.372844 -0.912003
v 0.082824 4.679366 -0.817991
v 0.098443 5.336453 -0.767033
v 0.084057 5.390113 -1.010765
v 0.861125 5.368830 -0.523991
v 0.553365 5.381024 -0.577000
v 0.994336 4.691316 -0.153423
v 0.996972 5.391006 -0.121189
v 0.747448 5.334674 -0.124401
v -1.047410 0.305073 0.536823
v 0.053610 1.557578 -0.948834
v 0.741862 1.541301 -0.531663
v 0.733974 1.812778 -0.752780
v 0.138417 1.833509 -1.043511
v -0.694180 1.828806 -0.809425
v 1.040319 1.834446 -0.077764
v 0.875999 1.552548 0.048931
v -0.976586 5.395224 -0.175732
v 0.276776 2.032004 -0.735672
v 0.737688 2.032188 -0.260197
v -0.673560 1.822375 0.754536
v -0.577984 5.387506 0.767448
v -0.891567 4.440089 0.367582
v -0.986883 4.608200 0.066196
v -0.529253 5.361675 0.511997
v -0.030325 5.390649 0.737915
v -0.966615 5.348133 0.261581
v -0.830302 5.392849 0.107094
v -0.740730 4.280221 0.004642
v -0.781270 5.346975 -0.066498
v -0.377953 2.029314 -0.700121
v 0.748273 1.807766 0.689203
v 0.097337 1.843243 0.976878
v 0.130296 4.798772 0.841490
v -0.224707 2.032444 0.672709
v 0.439767 4.007254 0.613794
v -0.087551 5.362564 -0.810093
v 0.291800 4.010495 -0.759687
v 0.733000 4.015533 -0.368814
f 3 2 1
f 6 5 4
f 9 8 7
f 12 11 10
f 15 14 13
f 16 9 7
f 19 18 17
f 2 21 20
f 24 23 22
f 27 26 25
f 29 28 25
f 31 30 12
f 34 33 32
f 37 36 35
f 15 38 14
f 5 27 4
f 39 19 17
f 40 39 17
f 43 42 41
f 36 44 35
f 47 46 45
f 43 41 48
f 51 50 49
f 50 45 46
f 52 34 32
f 13 14 53
f 56 55 54
f 57 37 35
f 59 58 3
f 28 60 25
f 63 62 61
f 61 62 64
f 3 1 59
f 67 66 65
f 68 40 42
f 64 42 40
f 69 15 13
f 57 71 70
f 63 61 72
f 74 72 73
f 9 16 6
f 31 12 75
f 77 76 52
f 21 78 8
f 37 57 70
f 33 37 32
f 80 3 79
f 79 28 29
f 81 73 72
f 56 73 55
f 83 82 14
f 73 84 74
f 28 79 3
f 58 28 3
f 85 38 15
f 86 62 63
f 89 88 87
f 66 87 88
f 88 89 90
f 91 90 89
f 49 15 69
f 46 92 15
f 93 66 88
f 95 94 88
f 97 96 56
f 98 97 71
f 99 95 75
f 100 93 88
f 75 101 99
f 10 11 102
f 103 93 100
f 104 67 65
f 92 46 47
f 86 92 47
f 20 21 8
f 59 20 66
f 100 88 94
f 100 99 103
f 84 73 96
f 96 73 56
f 107 106 105
f 105 91 89
f 58 60 28
f 109 108 107
f 64 47 45
f 41 42 64
f 106 107 108
f 111 110 30
f 113 106 112
f 90 91 114
f 116 115 31
f 117 91 115
f 90 114 118
f 117 115 116
f 116 31 119
f 116 119 117
f 90 120 88
f 90 121 120
f 95 31 75
f 31 95 122
f 49 69 123
f 123 98 71
f 126 125 124
f 124 128 127
f 130 129 77
f 125 126 129
f 106 108 112
f 108 131 111
f 133 126 132
f 124 127 126
f 50 51 35
f 44 48 35
f 33 76 134
f 22 134 24
f 52 18 19
f 73 81 55
f 133 132 5
f 5 6 16
f 67 104 135
f 137 109 136
f 4 27 25
f 105 25 60
f 138 11 12
f 139 11 138
f 67 135 140
f 138 135 139
f 133 78 129
f 129 126 133
f 141 140 135
f 12 137 141
f 128 23 24
f 23 128 124
f 136 142 59
f 59 66 67
f 17 18 72
f 61 17 72
f 108 109 131
f 143 110 111
f 39 40 68
f 125 129 130
f 110 12 30
f 110 143 12
f 12 109 137
f 12 131 109
f 95 121 122
f 118 114 119
f 121 119 122
f 119 31 122
f 127 128 144
f 79 144 128
f 132 126 127
f 144 132 127
f 77 129 145
f 77 145 76
f 138 141 135
f 138 12 141
f 145 78 146
f 145 129 78
f 139 102 11
f 10 102 147
f 139 135 104
f 102 139 104
f 76 145 146
f 134 76 146
f 80 24 134
f 80 134 148
f 78 148 146
f 134 146 148
f 80 148 2
f 3 80 2
f 46 15 49
f 49 50 46
f 71 97 56
f 71 56 54
f 80 79 24
f 79 128 24
f 20 149 66
f 66 149 87
f 33 36 37
f 134 22 33
f 62 86 47
f 62 47 64
f 147 102 104
f 147 104 65
f 147 65 103
f 99 101 103
f 150 112 111
f 112 108 111
f 111 131 143
f 12 143 131
f 49 123 51
f 57 123 71
f 105 89 151
f 25 105 151
f 152 6 4
f 6 152 9
f 13 53 97
f 98 13 97
f 79 29 144
f 26 29 25
f 17 61 40
f 61 64 40
f 140 136 67
f 136 59 67
f 106 91 105
f 106 113 91
f 149 9 87
f 152 87 9
f 109 142 136
f 107 142 109
f 118 121 90
f 121 118 119
f 54 70 71
f 32 37 70
f 120 95 88
f 95 120 121
f 101 147 103
f 101 10 147
f 98 69 13
f 123 69 98
f 107 60 142
f 60 107 105
f 82 86 63
f 82 74 84
f 63 74 82
f 74 63 72
f 16 7 78
f 8 78 7
f 95 99 94
f 100 94 99
f 54 55 32
f 32 70 54
f 152 4 151
f 4 25 151
f 133 5 16
f 78 133 16
f 10 101 75
f 12 10 75
f 43 23 124
f 44 43 48
f 93 103 65
f 66 93 65
f 124 68 42
f 124 42 43
f 41 45 48
f 64 45 41
f 91 117 114
f 114 117 119
f 92 86 38
f 86 82 83
f 2 20 1
f 59 1 20
f 89 152 151
f 89 87 152
f 14 82 84
f 53 14 84
f 2 148 21
f 148 78 21
f 113 112 150
f 111 30 150
f 113 150 30
f 30 31 115
f 140 137 136
f 141 137 140
f 23 43 44
f 22 23 44
f 20 8 149
f 9 149 8
f 50 48 45
f 35 48 50
f 52 32 55
f 52 55 18
f 76 33 34
f 34 52 76
f 81 72 18
f 55 81 18
f 38 83 14
f 83 38 86
f 142 60 58
f 58 59 142
f 77 52 19
f 130 77 19
f 125 130 39
f 130 19 39
f 68 125 39
f 124 125 68
f 51 123 57
f 57 35 51
f 27 5 132
f 27 132 144
f 38 85 92
f 85 15 92
f 97 53 96
f 84 96 53
f 29 26 144
f 26 27 144
f 33 22 36
f 22 44 36
f 115 113 30
f 91 113 115
