# This file uses centimeters as units for non-parametric coordinates.

v -0.800306 2.765984 -0.088243
v -0.819909 2.277047 -0.603321
v -0.711504 3.490881 -0.462837
v -0.126428 2.249905 -1.200590
v -0.283494 3.399361 -1.053753
v -0.659468 2.542699 -0.929068
v -0.371710 -0.000000 1.250940
v 1.440382 -0.000001 0.228796
v -1.345734 -0.000001 -0.808295
v 0.936058 1.458040 0.183900
v 1.381027 1.004231 0.079165
v 1.031450 1.005311 0.726445
v 0.247569 4.011991 0.242762
v 0.382087 4.969392 -0.092014
v 0.591598 3.291092 0.117939
v 0.214730 2.476650 -1.185846
v 0.667824 2.569225 -0.902199
v 0.282849 3.373782 -1.042320
v 0.933022 1.463110 -0.604069
v 0.497778 1.461226 -1.073076
v 1.262030 1.059417 -0.830194
v 0.142423 1.000692 -1.623111
v -0.092875 1.476667 -1.222142
v -0.410954 0.893291 -1.627219
v -0.647755 1.465584 0.516304
v -0.609087 0.994161 1.066437
v -1.197810 0.999833 0.522575
v 0.064552 1.967311 0.775030
v -0.469618 2.253404 0.615072
v 0.190818 2.261928 0.675528
v 0.585350 4.743038 0.299137
v -0.288223 5.381917 -0.600082
v -0.395538 5.056030 -0.128273
v -0.610896 4.740388 0.327162
v -0.254468 4.018608 0.249159
v -0.252166 6.065912 0.584984
v -0.293942 6.527055 -0.146286
v 0.415961 5.482770 -0.065559
v 1.068657 5.272963 0.652622
v 0.605704 5.900260 0.755741
v 0.676930 4.636661 0.711315
v 0.434590 3.915665 0.913774
v 0.634777 4.694804 1.069437
v -0.609349 5.903489 0.758835
v -0.428327 5.510925 0.000343
v -0.599080 4.672829 1.095295
v -0.496237 3.774453 0.703705
v -0.687306 4.658910 0.746832
v 0.585157 5.151860 1.592506
v 0.770082 5.560354 1.130909
v -0.467755 5.301414 1.696182
v -0.742702 5.537966 1.163658
v -0.280947 5.977028 1.106201
v -0.375165 3.680205 0.263750
v 0.133563 3.148293 0.689709
v 0.242942 2.456447 0.926074
v -0.266468 2.484514 0.923690
v -1.370332 -0.000000 0.497761
v -1.437118 0.954090 -0.098174
v -0.952805 1.468435 -0.503737
v -0.940332 1.459140 0.100677
v -1.318175 1.021115 -0.668233
v -0.962504 0.969353 -1.302050
v -0.694863 1.457233 -0.933918
v 0.287736 5.297338 -0.616886
v 0.243555 6.101128 0.647770
v 0.291617 6.503735 -0.350063
v 0.777219 1.929515 0.388395
v 0.580337 2.265015 0.498864
v 0.816590 2.715868 -0.190516
v 0.447712 4.940628 -0.410864
v 0.832719 2.543416 -0.586684
v 0.410702 1.452571 0.688364
v 1.205322 0.290491 -0.112338
v 0.938350 0.290492 0.513101
v 1.207817 0.606624 0.618853
v -0.273808 0.290492 0.951033
v -1.088641 0.290492 0.377401
v -0.845246 0.678463 0.998501
v 0.599562 0.712589 1.144676
v 0.464434 0.290492 0.888127
v 0.660951 1.020285 -1.442291
v 1.307957 -0.000001 -0.854264
v -0.174116 0.000000 -1.707087
v 1.484358 0.706034 -0.191290
v 1.360859 0.648187 -0.763237
v 1.051155 0.290492 -0.776141
v 0.260085 5.556774 1.625034
v 0.193252 5.090601 1.749859
v -0.004886 4.501885 1.372656
v 0.204991 3.935831 1.168415
v -1.395180 0.705743 -0.722729
v -1.146739 0.290491 -0.630582
v -0.903735 0.581818 -1.371916
v -0.740003 0.290491 -1.165536
v -0.082182 0.290491 -1.426889
v 0.284146 6.046592 -1.229343
v -0.288552 5.930668 -1.323978
v 0.289664 6.533616 1.375423
v 0.217282 5.225275 -1.749859
v -0.291282 4.423622 -1.742416
v 0.207720 3.753017 -1.427710
v -0.244578 3.865913 -1.521969
v -0.259513 3.273919 0.588118
v -0.211504 3.970916 1.170015
v -0.203423 1.448647 0.755847
v 0.305797 0.999660 1.164356
v -0.389103 1.710595 0.828807
v -1.012903 2.140251 0.019967
v -0.874024 2.487743 0.163313
v -0.706263 2.494575 0.579881
v -0.229342 5.793639 1.375027
v -0.293043 6.534234 1.380241
v 0.948158 2.143933 -0.567947
v 0.569062 2.249983 -0.934451
v 0.513224 1.941718 -1.090631
v 0.971951 2.160388 -0.005626
v 0.775573 2.261931 -0.390275
v -1.316538 0.658132 0.430492
v -1.438133 0.608126 -0.106107
v 0.698411 -0.000000 1.105963
v -0.777310 0.130602 1.052777
v -0.531744 1.729559 -1.204595
v -1.115715 1.720951 -0.222445
v -0.970199 1.725548 -0.798942
v 0.177660 0.635281 -1.703822
v 0.667342 0.290491 -1.226298
v 0.991838 0.667404 -1.317909
v 0.281618 4.307890 -1.716246
v 1.515574 0.133391 -0.329285
v 1.158609 0.147200 0.709564
v -0.327062 0.137676 -1.679788
v -1.515574 0.000001 -0.278767
v -1.172779 0.000000 -1.234573
v 0.442045 4.804782 1.596916
v -0.156936 0.632319 1.234171
v -0.480284 4.875234 1.644796
v -0.020017 4.660109 1.616549
v -1.055090 5.262750 0.758099
v -0.935772 1.733884 0.414336
v 0.857539 2.498146 0.260235
v 0.610074 2.481582 0.689821
v 0.358673 3.577673 0.342161
v -0.358857 3.509651 1.004387
v 0.628416 0.000000 -1.631440
v -0.259468 6.285079 -0.865501
v 1.092957 0.130655 -1.237425
v 0.231977 5.783458 1.373543
v -0.427027 1.939932 -1.112699
v -0.827123 2.142592 -0.805159
v -0.905717 1.941468 -0.561255
v 0.091928 1.712151 -1.350220
v 0.688989 1.734516 -1.099027
v 1.101662 1.723035 -0.503518
v 1.009430 1.726222 0.284410
v 0.956850 1.944069 -0.365968
v 0.211240 0.153574 1.253323
v -0.420842 4.967790 -0.494820
v -0.679418 1.939674 0.477570
v -0.941571 5.278679 0.438923
v 0.387689 1.722840 0.852704
v -0.028975 3.493345 1.185715
v -0.947767 1.933268 -0.040135
v 0.325886 5.922698 1.150539
v 0.964824 5.892382 1.044842
v 0.468689 3.908491 0.580675
v 0.466428 3.630222 0.940239
v -0.975933 5.898186 1.060757
v -0.749510 6.430349 1.220409
v -0.712271 6.532600 0.984432
v 0.710591 6.540482 1.183697
v 0.700978 6.537305 0.982319
f 3 2 1
f 6 5 4
f 9 8 7
f 12 11 10
f 15 14 13
f 18 17 16
f 21 20 19
f 24 23 22
f 27 26 25
f 30 29 28
f 31 13 14
f 5 6 32
f 35 34 33
f 37 32 36
f 40 39 38
f 43 42 41
f 45 44 36
f 48 47 46
f 50 49 39
f 53 52 51
f 33 1 54
f 57 56 55
f 58 9 7
f 61 60 59
f 60 63 62
f 23 63 64
f 65 17 18
f 67 66 65
f 69 28 68
f 72 71 70
f 73 12 10
f 76 75 74
f 79 78 77
f 81 76 80
f 20 21 82
f 84 83 8
f 76 74 85
f 74 87 86
f 89 88 51
f 91 43 90
f 94 93 92
f 96 95 94
f 18 97 65
f 98 5 32
f 67 37 99
f 98 97 100
f 101 5 98
f 18 100 97
f 5 103 102
f 18 16 5
f 55 104 57
f 47 105 46
f 25 26 106
f 12 73 107
f 108 25 106
f 29 2 109
f 110 2 29
f 104 111 57
f 88 112 51
f 37 113 99
f 116 115 114
f 118 69 117
f 119 78 79
f 120 93 78
f 8 121 7
f 78 122 77
f 23 64 123
f 125 60 124
f 128 127 126
f 96 94 126
f 129 100 18
f 100 101 98
f 130 87 74
f 131 74 75
f 96 132 95
f 134 133 93
f 49 43 39
f 90 43 135
f 77 136 79
f 106 26 107
f 138 137 90
f 46 137 139
f 124 60 61
f 140 25 108
f 143 142 141
f 69 118 141
f 55 144 104
f 91 42 43
f 19 10 21
f 68 117 69
f 93 133 78
f 58 122 78
f 96 145 132
f 127 96 126
f 67 146 37
f 98 32 37
f 130 147 87
f 127 145 96
f 40 50 39
f 148 99 113
f 37 36 113
f 112 148 113
f 111 29 57
f 56 57 29
f 120 92 93
f 60 62 59
f 151 150 149
f 150 4 149
f 116 149 4
f 116 4 115
f 46 105 90
f 46 90 137
f 149 116 152
f 153 19 20
f 156 155 154
f 154 116 156
f 77 122 157
f 77 81 136
f 158 32 6
f 32 45 36
f 87 128 86
f 21 10 11
f 38 65 66
f 71 17 65
f 140 108 159
f 28 159 108
f 1 110 54
f 110 1 2
f 81 77 157
f 157 131 81
f 66 67 99
f 66 99 148
f 9 84 8
f 132 134 95
f 36 44 53
f 113 36 53
f 88 49 50
f 148 112 88
f 97 146 67
f 65 97 67
f 151 149 125
f 123 149 152
f 29 30 56
f 69 141 142
f 139 48 46
f 34 160 33
f 83 130 8
f 130 74 131
f 31 14 39
f 43 41 39
f 108 106 161
f 73 10 161
f 82 21 128
f 21 86 128
f 105 91 90
f 144 55 162
f 85 11 76
f 85 21 11
f 35 47 34
f 104 54 111
f 163 140 159
f 151 125 124
f 82 128 126
f 126 24 22
f 76 11 12
f 76 12 80
f 137 89 51
f 139 137 51
f 73 106 107
f 161 106 73
f 155 10 154
f 155 161 10
f 164 88 50
f 165 50 40
f 31 166 13
f 142 143 55
f 70 141 72
f 15 143 141
f 143 167 55
f 167 162 55
f 68 28 161
f 28 108 161
f 159 28 29
f 159 29 109
f 92 120 59
f 119 79 27
f 109 163 159
f 150 151 109
f 152 23 123
f 152 153 20
f 20 82 23
f 152 20 23
f 51 52 139
f 44 45 160
f 130 131 8
f 131 121 8
f 154 19 153
f 19 154 10
f 52 168 44
f 52 44 139
f 118 72 141
f 72 17 71
f 53 169 52
f 53 44 170
f 53 51 112
f 113 53 112
f 126 94 24
f 63 94 92
f 1 33 3
f 32 158 45
f 84 145 83
f 130 83 147
f 94 63 24
f 63 23 24
f 7 121 157
f 157 121 131
f 160 45 33
f 158 33 45
f 136 107 26
f 136 81 80
f 4 2 6
f 6 2 3
f 164 40 66
f 66 40 38
f 166 143 13
f 15 13 143
f 168 170 44
f 169 168 52
f 170 168 169
f 170 169 53
f 137 138 89
f 49 135 43
f 133 9 58
f 78 133 58
f 95 134 93
f 93 94 95
f 39 14 38
f 71 14 70
f 71 38 14
f 65 38 71
f 119 27 59
f 61 59 27
f 47 54 104
f 104 144 47
f 27 79 26
f 26 79 136
f 16 115 4
f 16 4 5
f 122 58 7
f 7 157 122
f 42 91 167
f 166 167 143
f 164 50 171
f 164 172 40
f 140 124 61
f 140 163 124
f 148 88 164
f 164 66 148
f 68 156 117
f 156 116 114
f 116 154 153
f 116 153 152
f 64 63 60
f 125 64 60
f 156 68 155
f 68 161 155
f 129 101 100
f 102 103 129
f 144 162 105
f 47 144 105
f 162 167 91
f 91 105 162
f 80 107 136
f 12 107 80
f 129 103 101
f 101 103 5
f 33 54 35
f 47 35 54
f 84 132 145
f 84 134 132
f 115 72 118
f 114 115 118
f 86 21 85
f 74 86 85
f 72 115 17
f 17 115 16
f 123 125 149
f 123 64 125
f 75 81 131
f 75 76 81
f 135 49 89
f 89 49 88
f 142 55 56
f 142 56 30
f 134 84 9
f 134 9 133
f 165 171 50
f 165 40 172
f 34 47 48
f 34 48 139
f 70 15 141
f 14 15 70
f 165 172 171
f 171 172 164
f 87 147 127
f 127 128 87
f 146 97 98
f 146 98 37
f 29 111 110
f 111 54 110
f 4 150 2
f 2 150 109
f 69 30 28
f 30 69 142
f 138 90 135
f 138 135 89
f 18 102 129
f 18 5 102
f 25 61 27
f 140 61 25
f 145 147 83
f 147 145 127
f 151 124 163
f 109 151 163
f 59 62 92
f 92 62 63
f 59 120 119
f 119 120 78
f 126 22 82
f 23 82 22
f 160 34 139
f 44 160 139
f 118 117 114
f 156 114 117
f 166 31 41
f 41 31 39
f 158 3 33
f 158 6 3
f 166 41 42
f 167 166 42
